ModelForces
version=1
nRows=7
nColumns=71
inDegrees=no

This file contains the forces exerted on a model during a simulation.

A force is a generalized force, meaning that it can be either a force (N) or a torque (Nm).

Units are S.I. units (second, meters, Newtons, ...)
Angles are in degrees.

endheader
time	semimem_r	semiten_r	bifemlh_r	bifemsh_r	sar_r	grac_r	rect_fem_r	vas_med_r	vas_int_r	vas_lat_r	med_gas_r	lat_gas_r	contactForce_femur_lat_meniscii_l.femur_lat_l.force.X	contactForce_femur_lat_meniscii_l.femur_lat_l.force.Y	contactForce_femur_lat_meniscii_l.femur_lat_l.force.Z	contactForce_femur_lat_meniscii_l.femur_lat_l.torque.X	contactForce_femur_lat_meniscii_l.femur_lat_l.torque.Y	contactForce_femur_lat_meniscii_l.femur_lat_l.torque.Z	contactForce_femur_lat_meniscii_l.meniscus_lat_l.force.X	contactForce_femur_lat_meniscii_l.meniscus_lat_l.force.Y	contactForce_femur_lat_meniscii_l.meniscus_lat_l.force.Z	contactForce_femur_lat_meniscii_l.meniscus_lat_l.torque.X	contactForce_femur_lat_meniscii_l.meniscus_lat_l.torque.Y	contactForce_femur_lat_meniscii_l.meniscus_lat_l.torque.Z	contactForce_femur_med_meniscii_l.femur_med_l.force.X	contactForce_femur_med_meniscii_l.femur_med_l.force.Y	contactForce_femur_med_meniscii_l.femur_med_l.force.Z	contactForce_femur_med_meniscii_l.femur_med_l.torque.X	contactForce_femur_med_meniscii_l.femur_med_l.torque.Y	contactForce_femur_med_meniscii_l.femur_med_l.torque.Z	contactForce_femur_med_meniscii_l.meniscus_med_l.force.X	contactForce_femur_med_meniscii_l.meniscus_med_l.force.Y	contactForce_femur_med_meniscii_l.meniscus_med_l.force.Z	contactForce_femur_med_meniscii_l.meniscus_med_l.torque.X	contactForce_femur_med_meniscii_l.meniscus_med_l.torque.Y	contactForce_femur_med_meniscii_l.meniscus_med_l.torque.Z	contactForce_femur_lat_meniscii_r.femur_lat_r.force.X	contactForce_femur_lat_meniscii_r.femur_lat_r.force.Y	contactForce_femur_lat_meniscii_r.femur_lat_r.force.Z	contactForce_femur_lat_meniscii_r.femur_lat_r.torque.X	contactForce_femur_lat_meniscii_r.femur_lat_r.torque.Y	contactForce_femur_lat_meniscii_r.femur_lat_r.torque.Z	contactForce_femur_lat_meniscii_r.meniscus_lat_r.force.X	contactForce_femur_lat_meniscii_r.meniscus_lat_r.force.Y	contactForce_femur_lat_meniscii_r.meniscus_lat_r.force.Z	contactForce_femur_lat_meniscii_r.meniscus_lat_r.torque.X	contactForce_femur_lat_meniscii_r.meniscus_lat_r.torque.Y	contactForce_femur_lat_meniscii_r.meniscus_lat_r.torque.Z	contactForce_femur_med_meniscii_r.femur_med_r.force.X	contactForce_femur_med_meniscii_r.femur_med_r.force.Y	contactForce_femur_med_meniscii_r.femur_med_r.force.Z	contactForce_femur_med_meniscii_r.femur_med_r.torque.X	contactForce_femur_med_meniscii_r.femur_med_r.torque.Y	contactForce_femur_med_meniscii_r.femur_med_r.torque.Z	contactForce_femur_med_meniscii_r.meniscus_med_r.force.X	contactForce_femur_med_meniscii_r.meniscus_med_r.force.Y	contactForce_femur_med_meniscii_r.meniscus_med_r.force.Z	contactForce_femur_med_meniscii_r.meniscus_med_r.torque.X	contactForce_femur_med_meniscii_r.meniscus_med_r.torque.Y	contactForce_femur_med_meniscii_r.meniscus_med_r.torque.Z	aACL_R	pACL_R	aPCL_R	pPCL_R	aMCL_R	aLCL_R	aPCL_L	pPCL_L	aMCL_L	aLCL_L
      0.38410560	     24.48505299	      6.64342135	     26.80305904	      8.65911234	      5.11238587	      0.00000000	      3.50814964	      2.19114742	      2.12732114	      2.30354443	      0.00000000	      0.00000000	      0.00000000	      0.00000000	      0.00000000	      0.00000000	      0.00000000	      0.00000000	      0.00000000	      0.00000000	      0.00000000	      0.00000000	      0.00000000	      0.00000000	      0.00000000	      0.00000000	      0.00000000	      0.00000000	      0.00000000	      0.00000000	      0.00000000	      0.00000000	      0.00000000	      0.00000000	      0.00000000	      0.00000000	      0.00000000	      0.00000000	      0.00000000	      0.00000000	      0.00000000	      0.00000000	      0.00000000	      0.00000000	      0.00000000	      0.00000000	      0.00000000	      0.00000000	      9.01082202	      2.46455118	      1.78738154	     -0.68432520	     -0.23198535	      3.77171003	     -9.01082202	     -2.46455118	     -1.78738154	      0.01015885	      0.18516012	     -0.30843369	      0.00000000	      0.00000000	     18.47559952	     -0.74778954	      0.00000000	      0.00000000	      4.18991861	      0.00000000	     20.08480741	     28.75882721
      0.38713478	     26.92612889	     11.93764576	     26.63033658	      0.00000000	      5.00023432	      1.91328480	      3.51681850	      2.18546867	      2.12941822	      2.33241048	      0.00000000	      0.00000000	      0.00000000	      0.00000000	      0.00000000	      0.00000000	      0.00000000	      0.00000000	      0.00000000	      0.00000000	      0.00000000	      0.00000000	      0.00000000	      0.00000000	      0.00000000	      0.00000000	      0.00000000	      0.00000000	      0.00000000	      0.00000000	      0.00000000	      0.00000000	      0.00000000	      0.00000000	      0.00000000	      0.00000000	      0.00000000	      0.00000000	      0.00000000	      0.00000000	      0.00000000	      0.00000000	      0.00000000	      0.00000000	      0.00000000	      0.00000000	      0.00000000	      0.00000000	      7.58288628	      2.18477137	      1.53802166	     -0.58711851	     -0.19594907	      3.17498982	     -7.58288628	     -2.18477137	     -1.53802166	      0.00730009	      0.15613134	     -0.25975794	      0.00000000	      0.00000000	     16.87774323	     -1.44796615	      0.00000000	      0.00000000	      3.99127438	      0.00000000	     20.00250206	     28.96877900
      0.38962718	     25.05324006	     15.40235147	     27.12137740	     16.84345215	      4.86430785	      4.60664323	      3.52903925	      2.17038458	      2.12303598	      2.33636388	      0.00000000	      0.00000000	      0.00000000	      0.00000000	      0.00000000	      0.00000000	      0.00000000	      0.00000000	      0.00000000	      0.00000000	      0.00000000	      0.00000000	      0.00000000	      0.00000000	      0.00000000	      0.00000000	      0.00000000	      0.00000000	      0.00000000	      0.00000000	      0.00000000	      0.00000000	      0.00000000	      0.00000000	      0.00000000	      0.00000000	      0.00000000	      0.00000000	      0.00000000	      0.00000000	      0.00000000	      0.00000000	      0.00000000	      0.00000000	      0.00000000	      0.00000000	      0.00000000	      0.00000000	      6.48422166	      1.95893688	      1.38048651	     -0.52696150	     -0.16794620	      2.71566592	     -6.48422166	     -1.95893688	     -1.38048651	      0.00653521	      0.13344414	     -0.22223568	      0.00000000	      0.00000000	     16.69232673	      0.80273809	      0.00000000	      0.00000000	      3.82491056	      0.00000000	     19.92716420	     29.14939611
      0.39211957	     26.43662803	     16.04803915	     24.99308605	     29.90257792	      4.76450601	      5.56397025	      3.54584884	      2.15222696	      2.11772678	      2.34458305	      0.00000000	      0.00000000	      0.00000000	      0.00000000	      0.00000000	      0.00000000	      0.00000000	      0.00000000	      0.00000000	      0.00000000	      0.00000000	      0.00000000	      0.00000000	      0.00000000	      0.00000000	      0.00000000	      0.00000000	      0.00000000	      0.00000000	      0.00000000	      0.00000000	      0.00000000	      0.00000000	      0.00000000	      0.00000000	      0.00000000	      0.00000000	      0.00000000	      0.00000000	      0.00000000	      0.00000000	      0.00000000	      0.00000000	      0.00000000	      0.00000000	      0.00000000	      0.00000000	      0.00000000	      5.57583271	      1.73263849	      1.13789196	     -0.43117738	     -0.14475570	      2.33576175	     -5.57583271	     -1.73263849	     -1.13789196	      0.00274250	      0.11514693	     -0.19128532	      0.00000000	      0.00000000	     14.67790816	     -1.69088529	      0.00000000	      0.00000000	      3.65607604	      0.00000000	     19.84580944	     29.33663808
      0.39474375	     25.82384057	     12.75039916	     26.41460265	     44.39287722	      4.64779877	      4.49468794	      3.57807053	      2.14670659	      2.12225148	      2.37108861	      0.00000000	      0.00000000	      0.00000000	      0.00000000	      0.00000000	      0.00000000	      0.00000000	      0.00000000	      0.00000000	      0.00000000	      0.00000000	      0.00000000	      0.00000000	      0.00000000	      0.00000000	      0.00000000	      0.00000000	      0.00000000	      0.00000000	      0.00000000	      0.00000000	      0.00000000	      0.00000000	      0.00000000	      0.00000000	      0.00000000	      0.00000000	      0.00000000	      0.00000000	      0.00000000	      0.00000000	      0.00000000	      0.00000000	      0.00000000	      0.00000000	      0.00000000	      0.00000000	      0.00000000	      5.06765180	      1.58671675	      1.02073530	     -0.38629140	     -0.13102964	      2.12330121	     -5.06765180	     -1.58671675	     -1.02073530	      0.00212747	      0.10402670	     -0.17406422	      0.00000000	      0.00000000	     13.20214401	     -2.18423330	      0.00000000	      0.00000000	      3.47587074	      0.00000000	     19.75455056	     29.54047585
      0.39707702	     25.87298546	     15.01063500	     24.15308218	      4.83970102	      4.55182873	      5.28669907	      3.59801519	      2.16156008	      2.13583577	      2.41037131	      0.00000000	      0.00000000	      0.00000000	      0.00000000	      0.00000000	      0.00000000	      0.00000000	      0.00000000	      0.00000000	      0.00000000	      0.00000000	      0.00000000	      0.00000000	      0.00000000	      0.00000000	      0.00000000	      0.00000000	      0.00000000	      0.00000000	      0.00000000	      0.00000000	      0.00000000	      0.00000000	      0.00000000	      0.00000000	      0.00000000	      0.00000000	      0.00000000	      0.00000000	      0.00000000	      0.00000000	      0.00000000	      0.00000000	      0.00000000	      0.00000000	      0.00000000	      0.00000000	      0.00000000	      4.56778273	      1.50104393	      0.95254803	     -0.36023797	     -0.11755314	      1.91391022	     -4.56778273	     -1.50104393	     -0.95254803	      0.00184075	      0.09297630	     -0.15654838	      0.00000000	      0.00000000	     13.24050882	      0.56119127	      0.00000000	      0.00000000	      3.31376439	      0.00000000	     19.66935010	     29.72710114
      0.39941030	     26.04055181	     15.13014146	     25.64294011	     20.69218240	      4.45837928	      5.06678003	      3.60322826	      2.12736655	      2.11578137	      2.39616773	      0.00000000	      0.00000000	      0.00000000	      0.00000000	      0.00000000	      0.00000000	      0.00000000	      0.00000000	      0.00000000	      0.00000000	      0.00000000	      0.00000000	      0.00000000	      0.00000000	      0.00000000	      0.00000000	      0.00000000	      0.00000000	      0.00000000	      0.00000000	      0.00000000	      0.00000000	      0.00000000	      0.00000000	      0.00000000	      0.00000000	      0.00000000	      0.00000000	      0.00000000	      0.00000000	      0.00000000	      0.00000000	      0.00000000	      0.00000000	      0.00000000	      0.00000000	      0.00000000	      0.00000000	      3.91048186	      1.34967032	      0.82616268	     -0.31123015	     -0.10092994	      1.63882327	     -3.91048186	     -1.34967032	     -0.82616268	      0.00061558	      0.07976740	     -0.13401665	      0.00000000	      0.00000000	     12.18284218	     -0.08301662	      0.00000000	      0.00000000	      3.15012018	      0.00000000	     19.58102627	     29.91841975
